HIERARCHY
ROOT hip
{
	OFFSET	0.00  0.00  0.00 
	CHANNELS 6 Xposition Yposition Zposition Xrotation Zrotation Yrotation
	JOINT waist
	{
		OFFSET	0.000000 2.191865 -0.079388
		CHANNELS 3 Xrotation Zrotation Yrotation
		JOINT abdomen
		{
			OFFSET	0.000000 2.770984 0.119082
			CHANNELS 3 Xrotation Zrotation Yrotation
			JOINT chest
			{
				OFFSET	0.000000 2.879627 -0.290598
				CHANNELS 3 Xrotation Zrotation Yrotation
				JOINT neck
				{
					OFFSET	0.000000 12.342733 -1.613748
					CHANNELS 3 Xrotation Zrotation Yrotation
					JOINT head
					{
						OFFSET	0.000000 4.485597 1.807195
						CHANNELS 3 Xrotation Zrotation Yrotation
						End Site
						{
							OFFSET 0.000000 7.191734 2.024398
						}
					}
				}
				JOINT lCollar
				{
					OFFSET	1.858774 10.237258 -1.915852
					CHANNELS 3 Zrotation Yrotation Xrotation
					JOINT lShldr
					{
						OFFSET	6.103279 0.000102 -0.038601
						CHANNELS 3 Zrotation Yrotation Xrotation
						JOINT lForeArm
						{
							OFFSET	10.574100 -0.365985 -0.655940
							CHANNELS 3 Zrotation Yrotation Xrotation
							JOINT lHand
							{
								OFFSET	13.213392 -0.641131 0.276866
								CHANNELS 3 Zrotation Yrotation Xrotation
								JOINT lThumb1
								{
									OFFSET	1.920964 -1.225712 1.722395
									CHANNELS 3 Zrotation Yrotation Xrotation
									JOINT lThumb2
									{
										OFFSET	0.248544 -0.143036 0.768265
										CHANNELS 3 Zrotation Yrotation Xrotation
										JOINT lThumb3
										{
											OFFSET	0.628484 -0.225174 0.508305
											CHANNELS 3 Zrotation Yrotation Xrotation
											End Site
											{
												OFFSET 0.831712 -0.207978 0.609962
											}
										}
									}
								}
								JOINT lIndex1
								{
									OFFSET	5.093442 -0.710319 1.829884
									CHANNELS 3 Zrotation Yrotation Xrotation
									JOINT lIndex2
									{
										OFFSET	0.889470 -0.051998 0.127073
										CHANNELS 3 Zrotation Yrotation Xrotation
										JOINT lIndex3
										{
											OFFSET	0.889570 -0.155981 0.127073
											CHANNELS 3 Zrotation Yrotation Xrotation
											End Site
											{
												OFFSET 0.797115 -0.294470 0.076252
											}
										}
									}
								}
								JOINT lMid1
								{
									OFFSET	5.154641 -0.519844 0.864111
									CHANNELS 3 Zrotation Yrotation Xrotation
									JOINT lMid2
									{
										OFFSET	0.928821 -0.051992 0.050831
										CHANNELS 3 Zrotation Yrotation Xrotation
										JOINT lMid3
										{
											OFFSET	0.984253 -0.311865 0.050831
											CHANNELS 3 Zrotation Yrotation Xrotation
											End Site
											{
												OFFSET 0.779717 -0.606438 -0.050831
											}
										}
									}
								}
								JOINT lRing1
								{
									OFFSET	4.924408 -0.754930 -0.235503
									CHANNELS 3 Zrotation Yrotation Xrotation
									JOINT lRing2
									{
										OFFSET	0.981624 -0.036924 -0.108278
										CHANNELS 3 Zrotation Yrotation Xrotation
										JOINT lRing3
										{
											OFFSET	0.805613 -0.205247 -0.041717
											CHANNELS 3 Zrotation Yrotation Xrotation
											End Site
											{
												OFFSET 0.667431 -0.470481 -0.035991
											}
										}
									}
								}
								JOINT lPinky1
								{
									OFFSET	4.535460 -0.816635 -1.006206
									CHANNELS 3 Zrotation Yrotation Xrotation
									JOINT lPinky2
									{
										OFFSET	0.690596 -0.064334 -0.168800
										CHANNELS 3 Zrotation Yrotation Xrotation
										JOINT lPinky3
										{
											OFFSET	0.598039 -0.111176 -0.071973
											CHANNELS 3 Zrotation Yrotation Xrotation
											End Site
											{
												OFFSET 0.422025 -0.290925 -0.035981
											}
										}
									}
								}
							}
						}
					}
				}
				JOINT rCollar
				{
					OFFSET	-1.858774 10.237258 -1.915852
					CHANNELS 3 Zrotation Yrotation Xrotation
					JOINT rShldr
					{
						OFFSET	-6.103279 0.000102 -0.038601
						CHANNELS 3 Zrotation Yrotation Xrotation
						JOINT rForeArm
						{
							OFFSET	-10.574100 -0.365985 -0.655940
							CHANNELS 3 Zrotation Yrotation Xrotation
							JOINT rHand
							{
								OFFSET	-13.213392 -0.641131 0.276866
								CHANNELS 3 Zrotation Yrotation Xrotation
								JOINT rIndex1
								{
									OFFSET	-5.093442 -0.710319 1.829884
									CHANNELS 3 Zrotation Yrotation Xrotation
									JOINT rIndex2
									{
										OFFSET	-0.889470 -0.051998 0.127073
										CHANNELS 3 Zrotation Yrotation Xrotation
										JOINT rIndex3
										{
											OFFSET	-0.889570 -0.155981 0.127073
											CHANNELS 3 Zrotation Yrotation Xrotation
											End Site
											{
												OFFSET -0.797115 -0.294470 0.076252
											}
										}
									}
								}
								JOINT rThumb1
								{
									OFFSET	-1.920964 -1.225712 1.722395
									CHANNELS 3 Zrotation Yrotation Xrotation
									JOINT rThumb2
									{
										OFFSET	-0.248544 -0.143036 0.768265
										CHANNELS 3 Zrotation Yrotation Xrotation
										JOINT rThumb3
										{
											OFFSET	-0.628484 -0.225174 0.508305
											CHANNELS 3 Zrotation Yrotation Xrotation
											End Site
											{
												OFFSET -0.831712 -0.207978 0.609962
											}
										}
									}
								}
								JOINT rMid1
								{
									OFFSET	-5.154641 -0.519844 0.864111
									CHANNELS 3 Zrotation Yrotation Xrotation
									JOINT rMid2
									{
										OFFSET	-0.928821 -0.051992 0.050831
										CHANNELS 3 Zrotation Yrotation Xrotation
										JOINT rMid3
										{
											OFFSET	-0.984253 -0.311865 0.050831
											CHANNELS 3 Zrotation Yrotation Xrotation
											End Site
											{
												OFFSET -0.779717 -0.606438 -0.050831
											}
										}
									}
								}
								JOINT rRing1
								{
									OFFSET	-4.924408 -0.754930 -0.235503
									CHANNELS 3 Zrotation Yrotation Xrotation
									JOINT rRing2
									{
										OFFSET	-0.981624 -0.036924 -0.108278
										CHANNELS 3 Zrotation Yrotation Xrotation
										JOINT rRing3
										{
											OFFSET	-0.805613 -0.205247 -0.041717
											CHANNELS 3 Zrotation Yrotation Xrotation
											End Site
											{
												OFFSET -0.667431 -0.470481 -0.035991
											}
										}
									}
								}
								JOINT rPinky1
								{
									OFFSET	-4.535460 -0.816635 -1.006206
									CHANNELS 3 Zrotation Yrotation Xrotation
									JOINT rPinky2
									{
										OFFSET	-0.690596 -0.064334 -0.168800
										CHANNELS 3 Zrotation Yrotation Xrotation
										JOINT rPinky3
										{
											OFFSET	-0.598039 -0.111176 -0.071973
											CHANNELS 3 Zrotation Yrotation Xrotation
											End Site
											{
												OFFSET -0.422025 -0.290925 -0.035981
											}
										}
									}
								}
							}
						}
					}
				}
			}
		}
	}
	JOINT lThigh
	{
		OFFSET	5.761895 -0.730553 0.000101
		CHANNELS 3 Xrotation Zrotation Yrotation
		JOINT lShin
		{
			OFFSET	-1.171020 -18.459274 1.627449
			CHANNELS 3 Xrotation Zrotation Yrotation
			JOINT lFoot
			{
				OFFSET	-0.883715 -16.872776 -3.357785
				CHANNELS 3 Xrotation Zrotation Yrotation
				JOINT lToe
				{
					OFFSET	1.287613 -2.778491 2.836049
					CHANNELS 3 Xrotation Yrotation Zrotation
					End Site
					{
						OFFSET 1.362641 -0.436631 3.828194
					}
				}
			}
		}
	}
	JOINT rThigh
	{
		OFFSET	-5.761895 -0.730553 0.000101
		CHANNELS 3 Xrotation Zrotation Yrotation
		JOINT rShin
		{
			OFFSET	1.171020 -18.459274 1.627449
			CHANNELS 3 Xrotation Zrotation Yrotation
			JOINT rFoot
			{
				OFFSET	0.883715 -16.872776 -3.357785
				CHANNELS 3 Xrotation Zrotation Yrotation
				JOINT rToe
				{
					OFFSET	-1.287613 -2.778491 2.836049
					CHANNELS 3 Xrotation Yrotation Zrotation
					End Site
					{
						OFFSET -1.362641 -0.436631 3.828194
					}
				}
			}
		}
	}
}
MOTION
Frames:     4
Frame Time: 0.033333
-25.682713 37.793312 -18.304520 4.156743 -4.132815 -36.363735 -9.412172 4.585635 -0.196089 -4.208979 -0.057604 -0.010735 22.757225 -7.722242 -0.996065 -3.815957 4.048259 6.829890 4.007526 -7.421753 10.432150 3.093317 -6.181159 1.759415 -69.114990 -33.294029 32.844372 -0.208586 -41.946667 26.760391 -0.359023 0.446978 -2.164887 -0.018104 -0.003944 -0.010280 -0.015681 -0.006574 -0.010607 -0.015424 -0.007546 -0.010088 -5.686847 -9.625577 0.233405 5.883209 -2.472511 -1.280752 5.744338 -4.277841 -2.137437 -3.443265 -3.578050 -0.021711 6.911311 1.287189 0.036950 17.386042 -7.508283 -4.738703 -8.794456 0.895098 -0.804349 10.993687 5.607616 1.990171 23.426367 -1.557530 0.198841 -12.750822 -4.125401 -3.890510 4.022433 13.052223 2.891526 29.040548 -4.426017 -0.496551 -8.846519 3.274180 1.375060 20.729752 9.945414 -64.023956 21.296938 139.187225 -29.296322 7.435105 -9.866428 -0.641895 5.349877 9.560308 0.190889 -5.912530 2.491510 -1.284422 -5.793149 4.286308 -2.142446 -0.001427 -0.010679 0.002670 -0.003851 -0.011809 -0.004022 -0.004104 -0.011405 -0.005351 3.257324 3.500277 -0.026989 -6.930302 -1.230895 0.020389 -17.426575 7.525548 -4.747852 8.794728 -0.905025 -0.804504 -10.983519 -5.588184 1.985697 -23.454935 1.504865 0.241236 12.768093 4.228670 -3.879047 -3.953623 -13.072432 2.885588 -0.010453 -0.013569 -0.002478 -35.771305 16.634071 11.308064 32.890339 11.321701 3.630878 -5.769023 5.068213 -18.573416 4.782079 9.476110 -0.587361 -17.549522 1.264634 -17.450130 40.564243 -3.577226 -31.704704 18.752655 -6.235968 -82.555481 8.965100 -10.202638 1.892968 
-25.489962 37.907402 -17.305696 4.292498 -3.692697 -36.406132 -9.412172 4.585635 -0.196089 -4.208979 -0.057604 -0.010735 22.782303 -8.066255 0.153074 -4.521690 3.892321 6.754862 4.542032 -7.345358 10.269119 2.506970 -5.790409 1.892429 -68.300026 -27.443478 21.084717 -4.737309 -33.607239 27.022577 -0.926362 -0.000261 -2.194017 -0.018104 -0.003944 -0.010280 -0.015681 -0.006574 -0.010607 -0.015424 -0.007546 -0.010088 -5.686847 -9.625577 0.233405 5.883209 -2.472511 -1.280752 5.744338 -4.277841 -2.137437 -3.443265 -3.578050 -0.021711 6.911311 1.287189 0.036950 17.386042 -7.508283 -4.738703 -8.794456 0.895098 -0.804349 10.993687 5.607616 1.990171 23.426367 -1.557530 0.198841 -12.750822 -4.125401 -3.890510 4.022433 13.052223 2.891526 29.040548 -4.426017 -0.496551 -8.543727 3.342299 1.392720 20.854420 8.953633 -63.291775 21.462229 139.437958 -29.660118 7.740271 -10.012708 -0.608343 5.349877 9.560308 0.190889 -5.912530 2.491510 -1.284422 -5.793149 4.286308 -2.142446 -0.001427 -0.010679 0.002670 -0.003851 -0.011809 -0.004022 -0.004104 -0.011405 -0.005351 3.257324 3.500277 -0.026989 -6.930302 -1.230895 0.020389 -17.426575 7.525548 -4.747852 8.794728 -0.905025 -0.804504 -10.983519 -5.588184 1.985697 -23.454935 1.504865 0.241236 12.768093 4.228670 -3.879047 -3.953623 -13.072432 2.885588 -0.010453 -0.013569 -0.002478 -35.144207 16.047371 11.704913 32.791489 10.868979 4.779595 -3.318166 5.587662 -17.328554 4.782079 9.476110 -0.587361 -16.879810 0.572423 -17.293966 39.635231 -4.088202 -31.857500 19.781628 -6.708926 -82.923073 8.965100 -10.202638 1.892968 
-25.298132 38.008713 -16.236288 4.342950 -3.158487 -36.202991 -9.412172 4.585635 -0.196089 -4.208979 -0.057604 -0.010735 22.692846 -8.692292 1.181809 -4.603966 3.613069 6.635197 5.077501 -7.128402 9.956739 1.979089 -5.155547 2.035479 -67.907707 -20.843813 8.949301 -7.009587 -27.742889 24.699488 -1.227034 0.425556 -2.127582 -0.018104 -0.003944 -0.010280 -0.015681 -0.006574 -0.010607 -0.015424 -0.007546 -0.010088 -5.686847 -9.625577 0.233405 5.883209 -2.472511 -1.280752 5.744338 -4.277841 -2.137437 -3.443265 -3.578050 -0.021711 6.911311 1.287189 0.036950 17.386042 -7.508283 -4.738703 -8.794456 0.895098 -0.804349 10.993687 5.607616 1.990171 23.426367 -1.557530 0.198841 -12.750822 -4.125401 -3.890510 4.022433 13.052223 2.891526 29.040548 -4.426017 -0.496551 -8.524179 3.293454 1.402349 21.212986 7.585747 -62.928905 21.824993 139.637573 -30.360462 8.265046 -10.247036 -0.554012 5.349877 9.560308 0.190889 -5.912530 2.491510 -1.284422 -5.793149 4.286308 -2.142446 -0.001427 -0.010679 0.002670 -0.003851 -0.011809 -0.004022 -0.004104 -0.011405 -0.005351 3.257324 3.500277 -0.026989 -6.930302 -1.230895 0.020389 -17.426575 7.525548 -4.747852 8.794728 -0.905025 -0.804504 -10.983519 -5.588184 1.985697 -23.454935 1.504865 0.241236 12.768093 4.228670 -3.879047 -3.953623 -13.072432 2.885588 -0.010453 -0.013569 -0.002478 -34.494930 15.206800 12.013208 32.752163 10.449991 5.099409 -1.718314 5.908191 -17.024189 4.782079 9.476110 -0.587361 -16.141813 -0.167805 -17.134245 38.775482 -4.729866 -32.228363 20.953505 -7.249614 -83.251541 8.965100 -10.202638 1.892968 
-25.098368 38.092430 -15.130063 4.503778 -2.462433 -35.714676 -9.412172 4.585635 -0.196089 -4.208979 -0.057604 -0.010735 22.203470 -9.436415 2.200426 -4.168055 3.210492 6.522763 5.649129 -6.622122 9.480177 1.597554 -4.286342 2.179337 -67.974213 -13.595885 -2.534239 -9.153864 -25.920826 18.583492 -0.472194 2.598294 -1.893465 -0.018104 -0.003944 -0.010280 -0.015681 -0.006574 -0.010607 -0.015424 -0.007546 -0.010088 -5.686847 -9.625577 0.233405 5.883209 -2.472511 -1.280752 5.744338 -4.277841 -2.137437 -3.443265 -3.578050 -0.021711 6.911311 1.287189 0.036950 17.386042 -7.508283 -4.738703 -8.794456 0.895098 -0.804349 10.993687 5.607616 1.990171 23.426367 -1.557530 0.198841 -12.750822 -4.125401 -3.890510 4.022433 13.052223 2.891526 29.040548 -4.426017 -0.496551 -8.758600 3.127621 1.403765 21.835592 5.854198 -62.810295 22.346985 139.869980 -31.237677 8.950679 -10.579131 -0.478582 5.349877 9.560308 0.190889 -5.912530 2.491510 -1.284422 -5.793149 4.286308 -2.142446 -0.001427 -0.010679 0.002670 -0.003851 -0.011809 -0.004022 -0.004104 -0.011405 -0.005351 3.257324 3.500277 -0.026989 -6.930302 -1.230895 0.020389 -17.426575 7.525548 -4.747852 8.794728 -0.905025 -0.804504 -10.983519 -5.588184 1.985697 -23.454935 1.504865 0.241236 12.768093 4.228670 -3.879047 -3.953623 -13.072432 2.885588 -0.010453 -0.013569 -0.002478 -34.044514 14.208124 12.320013 32.758919 9.903700 4.948676 -0.703165 6.070199 -17.078489 4.782079 9.476110 -0.587361 -15.499616 -0.978326 -17.001362 37.826557 -5.391802 -32.402744 22.082739 -7.921937 -83.106979 8.965100 -10.202638 1.892968 
